<?xml version="1.0" encoding="iso-8859-1"?>
<!-- Generator: Adobe Illustrator 18.1.1, SVG Export Plug-In . SVG Version: 6.00 Build 0)  -->
<svg version="1.1" id="Capa_1" xmlns="http://www.w3.org/2000/svg" xmlns:xlink="http://www.w3.org/1999/xlink" x="0px" y="0px"
	 viewBox="0 0 32.762 32.762" style="enable-background:new 0 0 32.762 32.762;" xml:space="preserve">
<g>
	<g id="b193_chinese_bowl">
		<path d="M6.305,15.604l-4.617,1.764c0.045,0.344,0.108,0.486,0.183,0.816l5.184-2.348C6.916,15.797,6.436,15.643,6.305,15.604z"/>
		<path d="M32.325,12.534c0-1.193-1.273-2.271-3.417-3.107l-0.527,0.199c2.228,0.791,3.594,1.811,3.594,2.908
			c0,2.445-6.812,4.516-14.873,4.516c-2.418,0-4.721-0.189-6.762-0.512l-8.237,2.715c1.739,5.602,7.802,9.744,14.999,9.744
			c8.547,0,15.501-5.846,15.501-13.035c0-0.844-0.097-2.373-0.286-3.271C32.32,12.635,32.325,12.584,32.325,12.534z"/>
		<path d="M3.941,14.707c-0.928-0.584-1.716-1.498-1.716-2.174c0-2.449,6.812-4.52,14.876-4.52c0.312,0,0.622,0.006,0.929,0.01
			l0.749-0.334c-0.551-0.02-1.11-0.027-1.678-0.027c-8.54,0-15.229,2.139-15.229,4.871c0,0.068,0.005,0.105,0.016,0.125
			c-0.153,0.708-0.246,2.274-0.277,3.139L3.941,14.707z"/>
		<polygon points="29.514,3.766 0,16.951 30.188,5.393 		"/>
		<polygon points="32.762,6.885 32.087,5.258 2.572,18.448 		"/>
	</g>
	<g id="Capa_1_266_">
	</g>
</g>
<g>
</g>
<g>
</g>
<g>
</g>
<g>
</g>
<g>
</g>
<g>
</g>
<g>
</g>
<g>
</g>
<g>
</g>
<g>
</g>
<g>
</g>
<g>
</g>
<g>
</g>
<g>
</g>
<g>
</g>
</svg>
